<?xml version="1.0" encoding="UTF-8"?>
<svg version="1.1" xmlns="http://www.w3.org/2000/svg" width="47" height="46">
<path d="M0 0 C3.83665053 3.37625247 5.37305501 6.31665014 6.03515625 11.26171875 C6.311618 18.06094999 5.42174632 23.70863581 1.66015625 29.4609375 C-2.79657332 33.91766707 -6.99339961 35.5569576 -13.21484375 35.7734375 C-19.36383614 35.61811377 -23.42674252 33.96699592 -28.27734375 30.1484375 C-31.45427349 25.94771313 -31.01569868 20.86261729 -30.82421875 15.8203125 C-30.16257591 11.23149923 -28.86277928 8.46470358 -25.33984375 5.4609375 C-20.95933654 2.50885656 -17.57414607 1.82921136 -12.33984375 2.4609375 C-7.93235674 3.90028289 -5.05186348 5.45965975 -2.33984375 9.2734375 C-0.79590169 14.19475283 -0.79891266 17.80632475 -2.40234375 22.7109375 C-4.95563762 26.33496751 -7.13496726 27.17809383 -11.33984375 28.4609375 C-15.34802376 29.0220827 -16.75872388 28.84835075 -20.15234375 26.5859375 C-22.96166962 23.85687808 -23.29235643 23.09014449 -23.58984375 19.1484375 C-23.32651827 15.26438673 -22.67578007 13.51562346 -20.33984375 10.4609375 C-17.46513882 9.02358504 -15.52089787 9.07921101 -12.33984375 9.4609375 C-9.90234375 11.7109375 -9.90234375 11.7109375 -8.33984375 14.4609375 C-8.58984375 16.7734375 -8.58984375 16.7734375 -9.33984375 18.4609375 C-12.33984375 17.4609375 -12.33984375 17.4609375 -14.33984375 14.4609375 C-15.32984375 14.4609375 -16.31984375 14.4609375 -17.33984375 14.4609375 C-17.50665484 17.37745924 -17.50665484 17.37745924 -17.33984375 20.4609375 C-16.67984375 21.1209375 -16.01984375 21.7809375 -15.33984375 22.4609375 C-13.34668705 22.48469676 -13.34668705 22.48469676 -11.21484375 22.0859375 C-9.93609375 21.8796875 -8.65734375 21.6734375 -7.33984375 21.4609375 C-6.43222606 16.83208729 -5.84999489 13.61068559 -8.33984375 9.4609375 C-11.69914776 6.84814549 -15.23217645 6.95648713 -19.33984375 7.4609375 C-22.81913461 9.95695051 -24.09495772 11.69746928 -25.40234375 15.7734375 C-25.32200015 20.51370975 -24.4665465 23.82940254 -21.33984375 27.4609375 C-17.28636308 29.90223836 -13.7561165 30.67882561 -9.08984375 29.9609375 C-4.73556341 27.5858755 -0.86073995 24.30015267 0.66015625 19.4609375 C1.11350441 13.83942033 0.84949187 10.29992948 -2.33984375 5.4609375 C-6.3391283 1.46165295 -10.63727428 -0.4744828 -16.35546875 -0.57421875 C-21.26087447 -0.19039884 -24.58948604 1.13675681 -28.33984375 4.4609375 C-30.54268368 7.95169982 -32.03766782 11.5544097 -33.33984375 15.4609375 C-34.98984375 15.4609375 -36.63984375 15.4609375 -38.33984375 15.4609375 C-38.1708699 7.35019268 -33.45286018 3.49413299 -27.90234375 -1.9140625 C-19.05272201 -7.52601775 -8.3479897 -5.93101527 0 0 Z " fill="#414141" transform="translate(39.33984375,7.5390625)"/>
<path d="M0 0 C2.4375 2.25 2.4375 2.25 4 5 C3.75 7.3125 3.75 7.3125 3 9 C0 8 0 8 -2 5 C-2.99 5 -3.98 5 -5 5 C-5.16681109 7.91652174 -5.16681109 7.91652174 -5 11 C-4.34 11.66 -3.68 12.32 -3 13 C-1.0068433 13.02375926 -1.0068433 13.02375926 1.125 12.625 C2.40375 12.41875 3.6825 12.2125 5 12 C5.33 10.35 5.66 8.7 6 7 C7.5625 8.125 7.5625 8.125 9 10 C9.125 13 9.125 13 8 16 C3.71396292 18.52119828 -0.04843463 19.75349908 -5 19 C-7.69990662 17.20006226 -9.5418865 15.916227 -11 13 C-11.37677003 8.00779715 -11.07396361 5.01979857 -8 1 C-5.12529507 -0.43735246 -3.18105412 -0.38172649 0 0 Z " fill="#4D4D4D" transform="translate(27,17)"/>
<path d="M0 0 C-0.33 1.32 -0.66 2.64 -1 4 C-1.70125 3.89300781 -2.4025 3.78601563 -3.125 3.67578125 C-9.41515623 2.88096531 -14.45381498 2.62234704 -20 6 C-23.92305291 9.71099599 -25.30103478 13.98805259 -27 19 C-28.65 19 -30.3 19 -32 19 C-31.83102615 10.88925518 -27.11301643 7.03319549 -21.5625 1.625 C-14.23319398 -3.0228526 -8.06281267 -1.92677509 0 0 Z " fill="#2E2E2E" transform="translate(33,4)"/>
<path d="M0 0 C4.42485195 0.50569737 6.81561943 1.89941892 10 5 C14.00205347 10.52007376 13.28482779 16.48060829 13 23 C12.67 23 12.34 23 12 23 C11.67 20.36 11.34 17.72 11 15 C10.67 16.98 10.34 18.96 10 21 C9.67 21 9.34 21 9 21 C8.91363281 20.34773438 8.82726563 19.69546875 8.73828125 19.0234375 C7.73890039 12.80710521 6.4559095 9.4559095 2 5 C1.401875 4.38125 0.80375 3.7625 0.1875 3.125 C-0.204375 2.75375 -0.59625 2.3825 -1 2 C-0.67 1.34 -0.34 0.68 0 0 Z " fill="#484848" transform="translate(32,5)"/>
<path d="M0 0 C4.67230248 -0.32222776 7.13884627 -0.43057686 11.375 1.6875 C15.29787364 5.14336487 15.89468361 7.4729123 16.25 12.625 C16 16 16 16 14 19 C13.74347656 18.10796875 13.48695312 17.2159375 13.22265625 16.296875 C11.19929664 9.45570976 11.19929664 9.45570976 6.6640625 4.24609375 C4.451855 3.30049717 2.3411629 2.54576129 0 2 C0 1.34 0 0.68 0 0 Z " fill="#363636" transform="translate(22,11)"/>
<path d="M0 0 C-0.67170806 3.8063457 -1.72746564 7.35206816 -3 11 C-4.65 11 -6.3 11 -8 11 C-7.38727783 4.505145 -7.38727783 4.505145 -5.5625 2.125 C-3.59760484 0.71027548 -2.45163842 0 0 0 Z " fill="#4E4E4E" transform="translate(9,12)"/>
<path d="M0 0 C0 0.99 0 1.98 0 3 C-4.03328438 6.44978893 -8.91781973 8.60240043 -14 10 C-11.50912479 4.35565223 -6.66951893 -1.21263981 0 0 Z " fill="#1D1D1D" transform="translate(19,4)"/>
<path d="M0 0 C2.75 -0.3125 2.75 -0.3125 6 0 C8.4375 2.25 8.4375 2.25 10 5 C9.75 7.3125 9.75 7.3125 9 9 C6 8 6 8 4 5 C2.68 5 1.36 5 0 5 C0 3.35 0 1.7 0 0 Z " fill="#393939" transform="translate(21,17)"/>
</svg>
